<svg xmlns="http://www.w3.org/2000/svg" xmlns:svg="http://www.w3.org/2000/svg" id="svg11278" width="1000" height="1000" version="1.1"><metadata id="metadata11283"/><g id="layer1" transform="translate(0,-52.3622)"><path style="color:#000;fill:#434350;fill-opacity:1;fill-rule:nonzero;stroke:none;stroke-width:1;marker:none;visibility:visible;display:inline;overflow:visible;enable-background:accumulate" id="path5072-0-4-3" d="m 500,72.3622 c -248.5284,0 -450,201.4716 -450,450 0,248.5284 201.4716,450 450,450 248.5284,0 450,-201.4716 450,-450 0,-248.5284 -201.4716,-450 -450,-450 z m -19.875,140.16346 c 6.57186,0.0516 13.20075,0.46154 19.875,0.46154 58.27663,0 112.77966,16.12057 159.31731,44.13462 L 234.75962,681.67951 C 206.74557,635.14186 190.625,580.63883 190.625,522.3622 c 0,-160.1844 121.72597,-293.532 277.73077,-309.375 3.89993,-0.396 7.82611,-0.49248 11.76923,-0.46154 z m 285.11538,150.54808 c 28.00617,46.53298 44.13462,101.0207 44.13462,159.28846 0,170.8632 -138.5118,309.375 -309.375,309.375 -58.26776,0 -112.75548,-16.12845 -159.28846,-44.13462 L 765.24038,363.07374 z"/></g></svg>