<svg xmlns="http://www.w3.org/2000/svg" xmlns:svg="http://www.w3.org/2000/svg" id="svg11278" width="1000" height="1000" version="1.1"><metadata id="metadata11283"/><g id="layer1" transform="translate(0,-52.3622)"><path style="color:#000;fill:#434350;fill-opacity:1;fill-rule:nonzero;stroke:none;stroke-width:3;marker:none;visibility:visible;display:inline;overflow:visible;enable-background:accumulate" id="path5171" d="m 500,112.3622 c -248.52825,0 -450,201.47175 -450,450 0,248.52825 201.47175,450 450,450 248.52825,0 450,-201.47175 450,-450 0,-248.52825 -201.47175,-450 -450,-450 z m -60,220 120,0 40,40 -20,180 -40,40 -80,0 -40,-40 -20,-180 z m 20,300 80,0 60,60 0,60 -60,60 -80,0 -60,-60 0,-60 z"/></g></svg>