<svg xmlns="http://www.w3.org/2000/svg" xmlns:svg="http://www.w3.org/2000/svg" id="svg11278" width="1000" height="1000" version="1.1"><metadata id="metadata11283"/><g id="layer1" transform="translate(0,-52.3622)"><path style="fill:#434350;fill-opacity:1;stroke:none;display:inline" id="path30737" d="m 500,285.69553 c -277.77762,0 -500,333.33334 -500,333.33334 0,0 222.22238,333.33333 500,333.33333 277.77762,0 500,-333.33333 500,-333.33333 0,0 -222.22238,-333.33334 -500,-333.33334 z m 0,142.85715 c 105.19619,0 190.47619,85.27672 190.47619,190.47619 0,105.19956 -85.28,190.47618 -190.47619,190.47618 -105.19619,0 -190.47619,-85.27662 -190.47619,-190.47618 0,-105.19948 85.28,-190.47619 190.47619,-190.47619 z m 0,95.23809 c -52.60048,0 -95.2381,42.63958 -95.2381,95.2381 0,52.59861 42.63762,95.23808 95.2381,95.23808 52.60048,0 95.2381,-42.63947 95.2381,-95.23809 0,-52.59852 -42.63762,-95.2381 -95.2381,-95.2381 z"/></g></svg>