<svg xmlns="http://www.w3.org/2000/svg" xmlns:svg="http://www.w3.org/2000/svg" id="svg11278" width="1000" height="1000" version="1.1"><metadata id="metadata11283"/><g id="layer1" transform="translate(0,-52.3622)"><g id="g23046" transform="translate(768,888)"><path id="rect13204-4" d="m -68,-515.6378 0,120 60,0 c 40,0 60,20 60,60 l 0,120 c 0,40 -20,60 -60,60 l -240,0 c -40,0 -60,-20 -60,-60 l 0,-100 -120,0 0,160 c 0,60 60,120 120,120 l 360,0 c 60,0 120,-60 120,-120 l 0,-240 c 0,-60 -60,-120 -120,-120 z" style="color:#000;fill:#434350;fill-opacity:1;fill-rule:nonzero;stroke:none;stroke-width:3;marker:none;visibility:visible;display:inline;overflow:visible;enable-background:accumulate"/><path id="path13219-0" d="m -588,-515.6378 c -60,0 -120,60 -120,120 l 0,240 c 0,60 60,120 120,120 l 100,0 0,-120 -40,0 c -40,0 -60,-20 -60,-60 l 0,-120 c 0,-40 20,-60 60,-60 l 220,0 c 33.24,0 60,26.76 60,60 l 0,60 120,0 0,-120 c 0,-60 -60,-120 -120,-120 z" style="color:#000;fill:#434350;fill-opacity:1;fill-rule:nonzero;stroke:none;stroke-width:3;marker:none;visibility:visible;display:inline;overflow:visible;enable-background:accumulate"/></g></g></svg>