<svg xmlns="http://www.w3.org/2000/svg" xmlns:svg="http://www.w3.org/2000/svg" id="svg11278" width="1000" height="1000" version="1.1"><metadata id="metadata11283"/><g id="layer1" transform="translate(0,-52.3622)"><g style="fill:#434350;fill-opacity:1;display:inline" id="g13338" transform="matrix(50,0,0,50,-36775,-3997.6378)"><path style="color:#000;fill:#434350;fill-opacity:1;fill-rule:nonzero;stroke:none;stroke-width:.28068599;marker:none;visibility:visible;display:inline;overflow:visible;enable-background:accumulate" id="path13340" d="m 735.5,87.8 0,8.4 0.8,0.8 1.6,0 0.8,-0.8 0,-4.4 2.4,2 2.4,-2 0,4.4 0.8,0.8 1.6,0 0.8,-0.8 0,-8.4 -0.8,-0.8 -1.6,0 -3.2,2.8 -3.2,-2.8 -1.6,0 z"/><path style="color:#000;fill:#434350;fill-opacity:1;fill-rule:nonzero;stroke:none;stroke-width:.28068599;marker:none;visibility:visible;display:inline;overflow:visible;enable-background:accumulate" id="path13342" d="m 750.7,87 -0.8,0.8 0,5.2 -2.4,0 4,4 4,-4 -2.4,0 0,-5.2 -0.8,-0.8 z"/></g></g></svg>