<svg xmlns="http://www.w3.org/2000/svg" xmlns:svg="http://www.w3.org/2000/svg" id="svg11278" width="1000" height="1000" version="1.1"><metadata id="metadata11283"/><g id="layer1" transform="translate(0,-52.3622)"><path style="fill:#434350;fill-opacity:1;stroke:none;display:inline" id="path11264" d="m 100,52.3622 -40,0 0,40 0,660 0,40 40,0 120,0 0,160 700,0 0,-560 -180,0 0,-300 0,-40 -40,0 z m 40,80 520,0 0,260 -80,0 0,-180 -360,0 0,220 0,280 -80,0 z m 160,340 540,0 0,400 -540,0 z m 160,40 0,320 280,-160 z"/></g></svg>