<svg xmlns="http://www.w3.org/2000/svg" xmlns:svg="http://www.w3.org/2000/svg" id="svg11278" width="1000" height="1000" version="1.1"><metadata id="metadata11283"/><g id="layer1" transform="translate(0,-52.3622)"><path style="fill:#434350;fill-opacity:1;stroke:none;display:inline" id="path12766" d="m 680,52.3622 0,100 -100,0 0,100 100,0 0,100 100,0 0,-100 100,0 0,-100 -100,0 0,-100 z"/><path style="fill:#434350;fill-opacity:1;stroke:none" id="path4268" d="m 120,52.3622 0,880 760,0 0,-460 -620,0 0,-60 280,0 0,-80 -280,0 0,-60 200,0 0,-220 z m 140,490 460,0 0,60 -460,0 z m 0,130 300,0 0,60 -300,0 z"/></g></svg>