<svg xmlns="http://www.w3.org/2000/svg" xmlns:svg="http://www.w3.org/2000/svg" id="svg11278" width="1000" height="1000" version="1.1"><metadata id="metadata11283"/><g id="layer1" transform="translate(0,-52.3622)"><path style="fill:#434350;fill-opacity:1;stroke:none;display:inline" id="path13236-6" d="m 50,187.3622 0,50 -50,0 0,100 50,0 0,205 -50,0 0,100 50,0 0,220 -50,0 0,100 50,0 0,50 100,0 0,-50 175,0 0,50 100,0 0,-50 150,0 0,50 100,0 0,-50 180,0 0,50 100,0 0,-50 50,0 0,-100 -50,0 0,-220 50,0 0,-100 -50,0 0,-205 50,0 0,-100 -50,0 0,-50 -100,0 0,50 -180,0 0,-50 -100,0 0,50 -150,0 0,-50 -100,0 0,50 -175,0 0,-50 -100,0 z m 100,150 705,0 0,525 -705,0 0,-525 z m 310,115 -210,293.34375 254.40625,0 c -1.88845,-9.45875 -2.875,-19.25309 -2.875,-29.28125 0,-78.79412 61.22063,-142.97016 137.75,-145.71875 L 560,452.3622 l -100,0 z m 190,176.65625 c -44.18278,0 -80,36.58431 -80,81.6875 0,45.10319 35.81722,81.65625 80,81.65625 44.18278,0 80,-36.55306 80,-81.65625 0,-45.10319 -35.81722,-81.6875 -80,-81.6875 z"/></g></svg>