<svg xmlns="http://www.w3.org/2000/svg" xmlns:svg="http://www.w3.org/2000/svg" id="svg11278" width="1000" height="1000" version="1.1"><metadata id="metadata11283"/><g id="layer1" transform="translate(0,-52.3622)"><path id="path3883" d="m 400,272.3622 c -60,0 -100,40 -100,100 l 0,140 100,0 0,-120 c 0,-20 0,-20 20,-20 l 160,0 c 20,0 20,0 20,20 l 0,120 100,0 0,-140 c 0,-60 -40,-100 -100,-100 z m -100,260 c -40,0 -40,40 -40,40 l 0,320 c 0,20 0,20 20,20 l 440,0 c 20,0 20,0.003 20,-20 l 0,-320 c 0,-40 -40,-40 -40,-40 l -60,80 -280,0 z" style="color:#000;fill:#434350;fill-opacity:1;fill-rule:nonzero;stroke:none;stroke-width:2;marker:none;visibility:visible;display:inline;overflow:visible;enable-background:accumulate"/></g></svg>