<svg xmlns="http://www.w3.org/2000/svg" xmlns:svg="http://www.w3.org/2000/svg" id="svg11278" width="1000" height="1000" version="1.1"><metadata id="metadata11283"/><g id="layer1" transform="translate(0,-52.3622)"><path style="color:#000;fill:#434350;fill-opacity:1;fill-rule:nonzero;stroke:none;stroke-width:1;marker:none;visibility:visible;display:inline;overflow:visible;enable-background:accumulate" id="path24459" d="m 500,112.3622 c -248.52813,0 -450,201.47185 -450,450 0,248.52815 201.47187,450 450,450 248.52814,0 450,-201.47185 450,-450 0,-248.52815 -201.47186,-450 -450,-450 z m -137.5,250 237.5,0 100,50 0,150 -50,50 50,50 0,100 -100,0 -100,-100 -50,0 0,50 -50,50 -50,0 -50,-50 0,-300 62.5,-50 z m 87.5,100 0,100 100,0 0,-100 -100,0 z"/></g></svg>