<svg xmlns="http://www.w3.org/2000/svg" xmlns:svg="http://www.w3.org/2000/svg" id="svg11278" width="1000" height="1000" version="1.1"><metadata id="metadata11283"/><g id="layer1" transform="translate(0,-52.3622)"><path style="color:#000;fill:#434350;fill-opacity:1;fill-rule:nonzero;stroke:none;stroke-width:3;marker:none;visibility:visible;display:inline;overflow:visible;enable-background:accumulate" id="path5522" d="m 49.955706,502.25538 c 4e-5,248.52808 201.471914,450.00002 450.000104,450.00002 248.52809,-4e-5 449.99992,-201.47193 449.99995,-449.99999 -3e-5,-6.70093 -0.17885,-13.37058 -0.46877,-20.00002 l -200.31251,0 c 0.52169,6.59417 0.78127,13.2717 0.78126,20 0,138.0711 -111.92881,249.99998 -249.99999,250.00001 -138.07117,0 -250,-111.92893 -250,-250.00004 -1e-5,-138.07108 111.92881,-250 249.99998,-249.99999 68.77288,0 131.05041,27.78087 176.25002,72.71872 L 806.5495,172.88037 C 726.19042,98.044307 618.42671,52.255395 499.95575,52.255367 251.42763,52.255399 49.955746,253.72727 49.955706,502.25538 z"/></g></svg>