<svg xmlns="http://www.w3.org/2000/svg" xmlns:svg="http://www.w3.org/2000/svg" id="svg11278" width="1000" height="1000" version="1.1"><metadata id="metadata11283"/><g id="layer1" transform="translate(0,-52.3622)"><path style="color:#000;fill:#434350;fill-opacity:1;fill-rule:nonzero;stroke:none;stroke-width:3;marker:none;visibility:visible;display:inline;overflow:visible;enable-background:accumulate" id="path4528-4" d="m 593.14498,52.41772 c -89.4595,1.595 -179.537,36.7475 -246.6005,106.2435 -115.65899,119.9025 -125.10849,300.61099 -37.458,434.35299 L 49.999989,852.2572 l 0,100.105 100.000001,0 255.85349,-256.23449 c 137.8035,91.44499 327.40549,73.29549 446.37801,-49.9965 134.13,-139.0415 129.529,-362.57799 -9.36452,-496.83949 -69.447,-67.136 -160.2625,-98.434 -249.72199,-96.874 z m 3.12,149.9905 c 51.11949,-1 100.78499,17.8695 140.46849,56.247 79.371,76.715 82.8865,201.78749 6.243,281.23249 -76.6465,79.4555 -201.56999,83.0145 -280.93699,6.1995 -79.367,-76.725 -82.8895,-201.77749 -6.243,-281.23249 38.3215,-39.7175 89.349,-61.6065 140.4685,-62.4965 z"/></g></svg>