<svg xmlns="http://www.w3.org/2000/svg" xmlns:svg="http://www.w3.org/2000/svg" id="svg11278" width="1000" height="1000" version="1.1"><metadata id="metadata11283"/><g id="layer1" transform="translate(0,-52.3622)"><path style="color:#000;fill:#434350;fill-opacity:1;fill-rule:nonzero;stroke:none;stroke-width:.63999999;marker:none;visibility:visible;display:inline;overflow:visible;enable-background:accumulate" id="path12232" d="m 459.2183,52.3622 -39.3759,113.9085 -101.24999,42.1875 -108.2813,-53.4375 -57.65616,57.654 53.43763,108.2835 -42.18751,102.654 L 50,461.5832 l 0,81.5625 113.90612,37.9665 42.18752,102.6585 -53.43765,106.875 57.65616,59.0625 108.28098,-54.846 101.25014,42.1875 39.375,115.3125 81.56163,0 37.97011,-115.3125 102.65604,-42.1875 106.87507,54.846 59.06275,-59.0625 L 792.49948,683.7707 834.68751,581.1122 950,543.1457 950,461.5832 834.68751,423.6122 792.49948,320.9582 847.34387,212.6747 788.28112,155.0207 681.40605,208.4582 578.75001,166.2707 540.7799,52.3622 l -81.56163,0 z m 42.1875,254.5335 c 111.83761,0 202.49999,90.6615 202.49999,202.5 0,111.834 -90.66239,202.5 -202.49999,202.5 -111.8376,0 -202.49969,-90.666 -202.49969,-202.5 0,-111.8385 90.66234,-202.5 202.49969,-202.5 z"/></g></svg>