<svg xmlns="http://www.w3.org/2000/svg" xmlns:svg="http://www.w3.org/2000/svg" id="svg11278" width="1000" height="1000" version="1.1"><metadata id="metadata11283"/><g id="layer1" transform="translate(0,-52.3622)"><path id="path12248" d="m 440,169.84789 0,400 120,0 0,-400 z m -260,40 c -120,0 -140,-0.0307 -140,120 l 0,495 C 40,904.8479 99.995094,952.364 180,952.3622 l 637.5,-0.014 c 82.50001,0 142.5,-47.5 142.5,-127.50001 l 0,-495 c 0,-90 -50.07802,-116.25325 -140,-120 l -120,0 0,135 c 120,0 120,0 120,80 l 0,310 c 0,80 0,77.51401 -80,77.51401 l -480,0 c -80,0 -80,2.48599 -80,-77.51401 l 0,-310 c 0,-80.0019 0,-80 120,-80 l 0,-135 z" style="color:#000;fill:#434350;fill-opacity:1;fill-rule:nonzero;stroke:none;stroke-width:4;marker:none;visibility:visible;display:inline;overflow:visible;enable-background:accumulate"/></g></svg>